<svg xmlns="http://www.w3.org/2000/svg" xmlns:xlink="http://www.w3.org/1999/xlink" viewBox="0,0,256,256" width="64px" height="64px"><defs><linearGradient x1="32" y1="9.083" x2="32" y2="54.676" gradientUnits="userSpaceOnUse" id="color-1"><stop offset="0" stop-color="#1a6dff"></stop><stop offset="1" stop-color="#fc00ff"></stop></linearGradient><linearGradient x1="30.5" y1="18.001" x2="30.5" y2="46" gradientUnits="userSpaceOnUse" id="color-2"><stop offset="0" stop-color="#00dbde"></stop><stop offset="1" stop-color="#e6abff"></stop></linearGradient></defs><g fill="none" fill-rule="nonzero" stroke="none" stroke-width="1" stroke-linecap="butt" stroke-linejoin="miter" stroke-miterlimit="10" stroke-dasharray="" stroke-dashoffset="0" font-family="none" font-weight="none" font-size="none" text-anchor="none" style="mix-blend-mode: normal"><g transform="scale(4,4)"><path d="M50,55h-36c-2.757,0 -5,-2.243 -5,-5v-36c0,-2.757 2.243,-5 5,-5h36c2.757,0 5,2.243 5,5v36c0,2.757 -2.243,5 -5,5zM14,11c-1.654,0 -3,1.346 -3,3v36c0,1.654 1.346,3 3,3h36c1.654,0 3,-1.346 3,-3v-36c0,-1.654 -1.346,-3 -3,-3z" fill="url(#color-1)"></path><path d="M42,34v4v0.021h-0.002c-0.012,2.747 -2.249,4.979 -4.998,4.979h-0.5c-0.987,0 -1.933,-0.42 -2.596,-1.152c-0.662,-0.731 -0.985,-1.718 -0.887,-2.705c0.178,-1.763 1.77,-3.143 3.626,-3.143h1.357c1.103,0 2,-0.897 2,-2v-9.795l-12,2.25v10.545v4c0,2.757 -2.243,5 -5,5h-0.5c-0.987,0 -1.933,-0.42 -2.596,-1.152c-0.662,-0.731 -0.985,-1.718 -0.887,-2.705c0.178,-1.763 1.77,-3.143 3.626,-3.143h1.357c1.103,0 2,-0.897 2,-2v-14.647c0,-0.963 0.687,-1.79 1.633,-1.966l12.591,-2.36c0.439,-0.083 0.891,0.033 1.234,0.319c0.345,0.286 0.542,0.707 0.542,1.154z" fill="url(#color-2)"></path></g></g></svg>